<svg width="358" height="90" viewBox="0 0 358 90" fill="none" xmlns="http://www.w3.org/2000/svg">
<rect width="83" height="89" rx="12" fill="black"/>
<path d="M12 11.5V77.5H27.7333V11.5H12Z" fill="white"/>
<path d="M29.7 57.7985V38.097L52.3167 11.5H71L44.45 41.0522L71 77.5H53.3L35.1083 51.3955L29.7 57.7985Z" fill="white"/>
<path d="M12 11.5V77.5H27.7333V11.5H12Z" stroke="white"/>
<path d="M29.7 57.7985V38.097L52.3167 11.5H71L44.45 41.0522L71 77.5H53.3L35.1083 51.3955L29.7 57.7985Z" stroke="white"/>
<path fill-rule="evenodd" clip-rule="evenodd" d="M66.6617 37.3708L63 29.0681L59.3383 37.3708L51.0324 41.0324L59.3383 44.6941L63 53.0011L66.6617 44.6941L74.9676 41.0324L66.6617 37.3708Z" fill="white"/>
<path d="M105.5 11.5V64.5H137.5V77.5H90.5V11.5H105.5Z" fill="black" stroke="black"/>
<path d="M133.712 11.5L150.067 39.751L150.487 40.4766L150.926 39.7617L168.279 11.5H185.092L164.224 44.5H137.6L116.904 11.5H133.712ZM143.5 53.8672L143.435 53.752L139.862 47.5H162.116L158.565 53.7529L158.5 53.8682V77.5H143.5V53.8672Z" fill="black" stroke="black"/>
<path d="M195.757 11.5L226.606 50.8086L227.5 51.9473V11.5H242.5V77.5H230.24L198.391 37.6875L197.5 36.5742V77.5H182.5V23.6455L190.273 11.5H195.757Z" fill="black" stroke="black"/>
<path d="M295.5 11.5V24.5H263.5V64.5H296.445V77.5H248.5V11.5H295.5ZM289.5 38.5V49.5H269.5V38.5H289.5Z" fill="black" stroke="black"/>
<path d="M336.927 11.5C336.964 11.5112 337.017 11.5275 337.085 11.5488C337.234 11.5956 337.454 11.6673 337.733 11.7646C338.293 11.9594 339.091 12.2577 340.043 12.6699C341.949 13.4956 344.46 14.7741 346.889 16.5879C351.745 20.2148 356.219 25.9294 355.005 34.4297C353.768 43.0844 350.687 47.8515 347.967 50.4512C346.604 51.7538 345.321 52.5214 344.388 52.9619C343.921 53.1822 343.541 53.3206 343.282 53.4033C343.153 53.4446 343.054 53.4726 342.989 53.4893C342.957 53.4975 342.933 53.5025 342.918 53.5059C342.911 53.5075 342.906 53.5092 342.903 53.5098H342.901L342.5 53.5898V55.1484L342.581 55.2734L357.076 77.5H340.274L326.422 55.7314L326.274 55.5H316.5V77.5H301.5V11.5H336.927ZM316.5 43.5H332.991L333.034 43.4922H333.037C333.038 43.492 333.04 43.4916 333.042 43.4912C333.046 43.4905 333.052 43.4896 333.059 43.4883C333.072 43.4856 333.092 43.4816 333.116 43.4766C333.165 43.4664 333.233 43.4513 333.319 43.4297C333.492 43.3864 333.738 43.317 334.033 43.2139C334.624 43.0079 335.423 42.6632 336.265 42.1045C337.957 40.9811 339.812 38.9991 340.49 35.5977C341.176 32.1563 339.845 29.3858 338.38 27.5049C337.647 26.5641 336.874 25.8358 336.284 25.3428C335.989 25.0959 335.738 24.9066 335.56 24.7783C335.471 24.7143 335.399 24.6653 335.35 24.6318C335.325 24.6152 335.306 24.6017 335.292 24.5928C335.285 24.5883 335.279 24.5855 335.275 24.583C335.273 24.5818 335.272 24.5809 335.271 24.5801L335.27 24.5781H335.269L335.146 24.5H316.5V43.5Z" fill="black" stroke="black"/>
</svg>
